<?xml version="1.0" encoding="UTF-8" standalone="no"?>
<svg
   height="2500"
   viewBox="-0.9 2.3 623.3 616.8"
   width="2500"
   version="1.1"
   id="svg2"
   sodipodi:docname="expressjs.svg"
   xmlns:inkscape="http://www.inkscape.org/namespaces/inkscape"
   xmlns:sodipodi="http://sodipodi.sourceforge.net/DTD/sodipodi-0.dtd"
   xmlns="http://www.w3.org/2000/svg"
   xmlns:svg="http://www.w3.org/2000/svg">
  <defs
     id="defs2" />
  <sodipodi:namedview
     id="namedview2"
     pagecolor="#ffffff"
     bordercolor="#000000"
     borderopacity="0.25"
     inkscape:showpageshadow="2"
     inkscape:pageopacity="0.0"
     inkscape:pagecheckerboard="0"
     inkscape:deskcolor="#d1d1d1"
     showgrid="false">
    <inkscape:page
       x="0"
       y="0"
       width="623.29999"
       height="616.79999"
       id="page2"
       margin="0"
       bleed="0" />
  </sodipodi:namedview>
  <path
     d="m 293.5,3.1 c -51,2.5 -97.7,16.6 -140.4,42.3 -23.9,14.4 -52.3,38.1 -71.2,59.1 -56.9,63.6 -82.8,136.8 -78.8,223 2.4,51.9 16.3,98.1 42.4,141.5 30.8,51.1 82.6,98.2 134.7,122.4 41,19.1 81.8,27.7 130.8,27.7 64.5,0 118.6,-15.8 168.5,-49.2 30.7,-20.5 57.1,-45.7 80.1,-76.2 43.1,-57.4 62.8,-123.5 59.3,-199.2 C 616.9,251.8 608,215.6 590.5,179.3 568.2,133 535.6,93.7 492.8,61.8 446.4,27 390.3,6.4 334.5,3.5 311.9,2.4 308.2,2.3 293.5,3.1 Z m -73.8,190.8 c 16.5,4.1 30.9,12.7 43.5,25.9 18.6,19.5 28.9,44.4 32.7,78.4 0.6,5.4 1.1,12.4 1.1,15.8 v 6 H 124.7 l 0.6,11.2 c 1.8,33.1 18.7,55.5 48.4,64 10.3,3 32.3,3.2 42.3,0.5 19.3,-5.2 35.8,-20.3 38.6,-35.3 l 0.6,-3.4 h 38 l -0.8,3.2 c -5.7,26.4 -22.4,47.7 -47.1,60.2 -17.3,8.7 -44.4,12.5 -68,9.6 -24,-3 -42.6,-11.6 -58.4,-27 -16.3,-16 -25.4,-34.2 -31.2,-62.5 -2.9,-14.6 -3.2,-46.5 -0.5,-59.1 6.7,-30.9 23.2,-57.1 45.6,-72.3 12.2,-8.3 29,-15 42.7,-17.1 10,-1.5 34.8,-0.5 44.2,1.9 z m 171.2,38.6 c 15.6,22.8 28.7,41.5 29.2,41.5 0.4,0 13.9,-18.5 30,-41.1 16.1,-22.6 29.7,-41.3 30.3,-41.5 0.6,-0.2 11.4,-0.3 23.9,-0.2 l 22.8,0.3 -39.7,53 c -21.8,29.1 -40.3,54 -41.1,55.2 -1.4,2.1 0.7,5.2 43.9,65.5 25,34.8 45.8,63.9 46.2,64.5 0.6,1 -4.6,1.3 -24.6,1.3 L 486.5,430.9 453.6,382 c -18,-27 -33.1,-49 -33.5,-49 -0.4,0 -15.6,22 -33.7,49 l -32.9,48.9 -23.7,0.1 c -13.1,0 -23.8,-0.2 -23.8,-0.4 0,-0.3 20,-28.5 44.5,-62.8 24.5,-34.3 44.3,-62.8 44.1,-63.4 -0.3,-0.7 -18.7,-26 -41,-56.4 -22.3,-30.4 -40.6,-55.6 -40.6,-56.1 0,-0.5 10.9,-0.9 24.8,-0.9 h 24.7 z"
     id="path1" />
  <path
     d="m 181,225 c -14.6,1.9 -25.4,7.3 -36.1,18 -6.3,6.1 -8.4,9.2 -12.2,17 -4.3,8.9 -7.7,20.7 -7.7,26.4 v 2.6 h 131 v -3.3 c 0,-5.9 -3.8,-18.5 -8,-26.6 -9.7,-18.7 -27.3,-31.1 -48.4,-34 -8.4,-1.2 -10.4,-1.2 -18.6,-0.1 z"
     id="path2" />
  <path
     style="fill:#000000;stroke-width:0.648596"
     d="M 287.07627,618.11121 C 221.98105,613.64679 165.71301,591.02803 115.864,549.28687 77.206189,516.91671 47.337623,478.02972 28.669409,435.76505 14.285029,403.19892 6.531463,371.56667 3.9084429,334.74761 2.9122516,320.76418 3.4744974,286.1429 4.8888282,274.37866 12.519224,210.90994 35.594365,158.99685 78.178889,109.49497 99.529255,84.676496 131.03363,58.544464 158.86976,42.564049 204.83393,16.176529 254.51031,3.1769835 309.45281,3.1587722 c 43.53399,-0.014431 77.76593,6.117757 114.47705,20.5070128 10.94039,4.288179 33.37644,15.44947 43.94325,21.860495 78.72072,47.760941 134.01404,128.00294 147.12765,213.51252 2.36749,15.43765 3.25185,26.4444 3.63346,45.22166 0.40128,19.74557 -0.21249,32.24548 -2.44997,49.89542 -8.31706,65.60751 -38.28725,125.15295 -88.15486,175.14807 -25.36761,25.43249 -51.97539,44.61255 -83.34449,60.07847 -30.52347,15.049 -62.92029,24.09864 -99.55936,27.81072 -11.94148,1.20985 -45.95197,1.74773 -58.04927,0.91807 z M 206.00187,430.6836 c 9.834,-0.90146 20.1333,-2.92427 28.2139,-5.54123 25.90532,-8.38972 46.84488,-28.85408 55.49763,-54.2382 1.51233,-4.43667 3.52454,-12.16998 3.52454,-13.54555 0,-0.36498 -7.64949,-0.60837 -19.12123,-0.60837 h -19.12119 l -0.40168,1.78364 c -0.22095,0.981 -0.69104,2.95112 -1.0447,4.37803 -3.48081,14.04467 -23.25689,29.87699 -41.38561,33.13246 -6.7166,1.20614 -25.58083,1.17866 -32.61209,-0.0475 -14.90549,-2.59928 -30.1374,-11.25612 -38.66761,-21.97618 -9.73606,-12.23548 -14.28544,-25.73135 -15.38716,-45.64648 l -0.43953,-7.94528 h 86.1357 86.13569 l -0.402,-10.53968 c -1.1021,-28.89362 -8.93825,-56.43029 -21.36416,-75.0749 -16.11654,-24.18227 -38.56289,-39.12523 -63.84964,-42.50594 -11.17407,-1.49392 -32.59009,-1.50133 -39.76211,-0.0138 -17.30084,3.58842 -35.15899,12.22955 -48.04869,23.24961 -20.44643,17.48068 -35.835162,48.07778 -38.291899,76.13498 -0.890631,10.17151 -0.336769,34.11643 1.010058,43.66738 2.919632,20.70433 10.967389,41.6867 21.289031,55.50544 5.94804,7.9633 16.6439,18.32305 23.88177,23.13131 20.30109,13.48639 46.05277,19.28146 74.21098,16.70022 z m 162.47311,-21.23134 c 17.54308,-26.23983 41.63874,-61.79386 47.43618,-69.99387 l 4.20064,-5.94147 7.09779,10.22489 c 3.90378,5.62366 18.7725,27.62326 33.04161,48.88793 l 25.94381,38.66308 21.72794,0.0172 c 24.44787,0.0195 28.78422,-0.26356 28.36459,-1.85137 -0.15099,-0.5713 -13.97892,-20.15606 -30.72874,-43.5217 -49.19373,-68.62424 -57.90028,-81.07904 -58.91634,-84.28026 -0.39449,-1.24298 15.06207,-22.36535 66.71096,-91.16475 l 14.12043,-18.80926 -7.01893,-0.40393 c -9.61333,-0.55324 -38.5434,-0.57965 -39.91232,-0.0364 -1.28766,0.51096 -3.65555,3.70031 -30.66384,41.30187 -11.01785,15.33927 -22.2003,30.76615 -24.8499,34.28193 -4.66006,6.18344 -4.85523,6.353 -5.9733,5.18875 -1.43811,-1.49749 -18.55916,-26.16216 -39.87876,-57.44952 l -16.21488,-23.79597 -20.75504,-0.0252 c -22.9526,-0.0279 -29.7525,0.34678 -29.26683,1.61241 0.42938,1.11892 7.49638,10.90327 44.72016,61.91553 17.83086,24.4358 33.25006,45.58075 34.26487,46.98876 1.0148,1.40801 1.84511,2.89583 1.84511,3.30626 0,1.31005 -15.75311,23.88025 -62.6842,89.81045 -26.46797,37.18304 -25.77815,36.14998 -24.38253,36.51531 0.62033,0.16236 11.48917,0.31589 24.153,0.34117 l 23.02513,0.046 z"
     id="path3" />
  <path
     style="fill:#ffffff;fill-opacity:1;stroke-width:0.648596"
     d="M 287.07627,618.06369 C 224.96892,614.1541 169.04612,592.34107 120.50543,553.0917 55.142045,500.23972 15.617615,431.34859 5.6271627,352.85869 3.6812478,337.57064 3.1543199,325.55892 3.4945033,304.24316 3.8450956,282.2752 4.5478966,273.94061 7.5715037,255.8937 20.004887,181.68294 61.917667,114.09768 126.22466,64.562936 179.21831,23.742697 240.90329,3.1051733 309.7771,3.1530425 c 15.94369,0.011082 32.41245,0.9184849 44.10449,2.4300887 50.43571,6.5205878 98.87208,26.4517278 140.09657,57.6484988 49.95378,37.80273 85.93238,85.58493 107.22146,142.39797 11.26089,30.0513 16.66056,60.59884 17.43423,98.63086 1.08397,53.28545 -8.50099,98.10174 -30.369,141.99595 -13.33019,26.75684 -28.62976,48.8893 -50.38613,72.88892 -31.27574,34.50053 -72.55972,63.29524 -113.94886,79.47696 -40.69398,15.90996 -87.44622,22.55157 -136.85359,19.4414 z M 206.00187,430.6836 c 9.49094,-0.87002 19.95588,-2.88393 27.53572,-5.29904 24.28701,-7.7384 45.30491,-27.00211 54.46405,-49.91838 1.88025,-4.70439 5.23114,-16.16616 5.23465,-17.90516 0.002,-0.63031 -4.25412,-0.81077 -19.11958,-0.81077 h -19.12119 l -0.40168,1.78364 c -0.22095,0.981 -0.69104,2.95112 -1.0447,4.37803 -3.48081,14.04467 -23.25689,29.87699 -41.38561,33.13246 -6.7166,1.20614 -25.58083,1.17866 -32.61209,-0.0475 -14.90549,-2.59928 -30.1374,-11.25612 -38.66761,-21.97618 -9.73606,-12.23548 -14.28544,-25.73135 -15.38716,-45.64648 l -0.43953,-7.94528 h 86.1357 86.13569 l -0.402,-10.53968 c -0.68753,-18.02474 -4.35358,-37.3958 -9.85066,-52.04976 -12.79533,-34.10939 -40.62636,-59.59761 -70.82618,-64.86401 -8.50787,-1.48365 -26.84752,-2.32968 -35.65001,-1.64458 -19.76768,1.53853 -41.4638,10.96761 -57.50441,24.99128 -17.10203,14.95162 -30.707951,39.4569 -36.195611,65.19101 -1.312029,6.1527 -1.455104,8.65772 -1.481786,25.94382 -0.01847,11.96963 0.278812,21.4406 0.794004,25.29521 2.437245,18.23546 8.790475,37.50443 16.740093,50.77175 6.36916,10.62963 18.9416,23.89769 28.86172,30.45858 20.32311,13.44114 46.20072,19.26662 74.18818,16.70104 z m 148.39222,-0.15565 c 0.68787,-1.70549 60.61051,-90.28931 64.70285,-95.65039 1.08971,-1.42756 1.18834,-1.31417 9.87023,11.35042 8.92384,13.01752 35.07833,51.8416 49.35055,73.25664 l 7.87729,11.81967 21.72794,0.0115 c 22.29243,0.012 28.53819,-0.30986 28.53819,-1.4701 0,-0.365 -17.76116,-25.49937 -39.46925,-55.85416 -38.25105,-53.48707 -49.49249,-69.63492 -50.34349,-72.31616 -0.41106,-1.29512 12.27195,-18.65911 62.81218,-85.99464 l 18.01228,-23.99802 -7.01844,-0.40393 c -8.98978,-0.51739 -37.74592,-0.66161 -39.44818,-0.19784 -1.55092,0.42253 -1.74609,0.68228 -30.17817,40.16608 -25.5737,35.51432 -29.56125,40.95125 -30.42691,41.48624 -0.34114,0.21085 -1.75803,-1.15687 -3.14866,-3.03939 -3.72756,-5.04599 -25.76274,-36.95514 -40.99439,-59.36398 l -13.29619,-19.56142 -20.75504,-0.0247 c -23.60056,-0.0281 -29.75799,0.33292 -29.22813,1.71369 0.19108,0.49799 9.64367,13.66145 21.00575,29.25213 11.36207,15.59069 29.46197,40.42456 40.222,55.1864 10.76003,14.76184 19.56369,27.20186 19.56369,27.64447 0,1.3503 -14.6738,22.43549 -56.19483,80.74792 -32.50809,45.65461 -31.85836,44.6935 -30.70585,45.42224 1.56239,0.98793 47.12307,0.81276 47.52458,-0.18273 z"
     id="path6" />
  <path
     style="fill:#ffffff;fill-opacity:1;stroke-width:0.648596"
     d="m 125.49319,284.54294 c 0.84851,-8.28199 5.61205,-21.63801 10.88278,-30.51315 4.78004,-8.04892 15.93369,-18.10827 25.33443,-22.84886 9.91832,-5.00159 23.59882,-7.44821 34.35679,-6.14436 26.04231,3.15627 45.12051,17.39979 54.42289,40.63138 2.56555,6.40712 5.12933,16.47583 5.12933,20.1443 v 2.83552 h -65.27339 -65.27339 z"
     id="path7" />
</svg>
