<?xml version="1.0" encoding="UTF-8" standalone="no"?>
<!-- Uploaded to: SVG Repo, www.svgrepo.com, Generator: SVG Repo Mixer Tools -->

<svg
   width="800"
   height="800"
   viewBox="0 0 256 256"
   version="1.1"
   preserveAspectRatio="xMidYMid"
   id="svg1"
   xmlns="http://www.w3.org/2000/svg"
   xmlns:svg="http://www.w3.org/2000/svg">
  <defs
     id="defs1" />
  <g
     id="g1">
    <path
       d="m 119.61681,0.06889051 c -0.55053,0.05004153 -2.30224,0.22518685 -3.87879,0.35029066 C 79.377517,3.6969009 45.319257,23.313177 23.748192,53.463195 11.736461,70.227104 4.0539589,89.242883 1.1511241,109.3846 0.12512219,116.41543 0,118.49215 0,128.02506 c 0,9.53291 0.12512219,11.60964 1.1511241,18.64047 6.9567938,48.06488 41.1651999,88.44839 87.5605079,103.4108 8.308114,2.67723 17.066668,4.50374 27.026388,5.60465 3.87879,0.42536 20.64517,0.42536 24.52395,0 17.19179,-1.90157 31.75602,-6.1551 46.12004,-13.48619 2.20215,-1.12593 2.62757,-1.42618 2.32728,-1.67639 -0.2002,-0.15012 -9.58436,-12.73556 -20.84536,-27.94819 l -20.46999,-27.64794 -25.65005,-37.95649 c -14.11378,-20.86732 -25.725122,-37.93147 -25.825219,-37.93147 -0.100098,-0.025 -0.200196,16.83897 -0.250245,37.43105 -0.07507,36.05492 -0.100098,37.50612 -0.550537,38.35683 -0.650636,1.22602 -1.151125,1.72643 -2.202151,2.27689 -0.800782,0.40033 -1.501466,0.47539 -5.280156,0.47539 h -4.329228 l -1.151124,-0.7256 c -0.750733,-0.47539 -1.301271,-1.10091 -1.676638,-1.82651 l -0.525513,-1.12594 0.05005,-50.16662 0.07507,-50.191651 0.775758,-0.975809 c 0.400391,-0.525436 1.251222,-1.200997 1.851808,-1.526267 1.026002,-0.500415 1.426393,-0.550456 5.755621,-0.550456 5.104985,0 5.955816,0.200166 7.282111,1.65137 0.375367,0.400332 14.263933,21.317683 30.880163,46.513593 16.61622,25.19591 39.33841,59.59945 50.49931,76.48847 l 20.2698,30.70047 1.026,-0.67556 c 9.08387,-5.9049 18.69325,-14.31187 26.30068,-23.06914 16.19081,-18.59043 26.626,-41.25924 30.12943,-65.42929 1.026,-7.03083 1.15112,-9.10756 1.15112,-18.64047 0,-9.53291 -0.12512,-11.60963 -1.15112,-18.64046 C 247.89208,61.319713 213.68367,20.936205 167.28837,5.9737901 159.10538,3.3215894 150.39687,1.4950739 140.63734,0.39416041 138.23499,0.1439528 121.69384,-0.13127557 119.61681,0.06889051 Z M 172.01799,77.483125 c 1.20117,0.600498 2.17712,1.751453 2.52746,2.95245 0.2002,0.65054 0.25025,14.562083 0.2002,45.913095 l -0.0751,44.98733 -7.93275,-12.16009 -7.95777,-12.16009 v -32.70213 c 0,-21.142548 0.1001,-33.027409 0.25024,-33.602887 0.40039,-1.401162 1.27625,-2.502076 2.47742,-3.152615 1.026,-0.525436 1.40137,-0.575478 5.33021,-0.575478 3.70361,0 4.35425,0.05004 5.18006,0.500415 z"
       fill="#000000"
       id="path1" />
  </g>
  <path
     style="fill:#ffffff;stroke-width:0.266389"
     d="M 117.87721,255.70377 C 105.31778,254.63757 92.527859,251.66329 81.115504,247.15488 40.28345,231.0243 10.203444,194.66544 2.151999,151.70864 0.43394227,142.5423 0.27672361,140.5526 0.27863578,128 0.28052179,115.61921 0.3316743,114.91247 1.878934,105.8897 7.7606374,71.590813 28.197854,40.553366 57.702909,21.111335 74.493654,10.047258 93.122115,3.2409974 113.3486,0.78012979 c 8.19868,-0.99749796 25.1776,-0.72188527 33.16545,0.53836291 14.63514,2.3089943 26.03396,5.9019278 38.49323,12.1331473 22.31005,11.157861 40.55376,28.173538 53.41101,49.81579 7.17653,12.080045 12.90419,27.324932 15.43444,41.08068 1.73999,9.45946 1.8704,11.10855 1.8704,23.65189 0,10.59232 -0.0515,11.94926 -0.59923,15.79341 -2.22778,15.6349 -5.82989,27.61839 -12.18825,40.5479 -8.78182,17.85753 -21.53005,33.35953 -37.50816,45.61038 -2.67523,2.05117 -7.94908,5.7227 -8.04381,5.59991 -0.027,-0.035 -15.99096,-24.21841 -35.47553,-53.74099 C 110.35157,103.69324 97.161184,83.783562 96.12031,82.509914 94.510038,80.539539 94.190477,80.454368 88.398176,80.451798 l -5.104419,-0.0022 -1.130621,0.799168 c -0.62184,0.43954 -1.371421,1.123895 -1.665741,1.520781 -0.530381,0.715235 -0.536233,1.165501 -0.661142,50.885673 l -0.126023,50.16406 0.576679,1.13039 c 0.317174,0.6217 1.070909,1.4884 1.674966,1.92597 l 1.098291,0.7956 4.422052,-0.006 c 5.006057,-0.007 6.102896,-0.29126 7.23184,-1.87671 0.518681,-0.72842 0.659664,-1.36153 0.82256,-3.69389 0.108124,-1.54814 0.220662,-15.5815 0.250076,-31.18525 0.02941,-15.60375 0.126909,-31.26274 0.216644,-34.79776 l 0.163155,-6.42731 2.149696,3.09745 c 2.524551,3.63755 18.846931,27.70376 36.534191,53.86708 12.58965,18.62285 18.26137,26.47261 45.97027,63.62361 4.0893,5.48277 7.49683,10.12957 7.57229,10.32621 0.0951,0.24779 -1.36426,1.08237 -4.75431,2.71895 -12.33188,5.95334 -23.66859,9.36661 -38.67293,11.64367 -4.26216,0.64682 -5.31503,0.7 -15.23417,0.7695 -5.86056,0.0411 -11.19501,0.0289 -11.85432,-0.0271 z m 56.94587,-129.90148 c -0.0707,-44.921141 -0.0798,-45.632485 -0.59897,-46.490962 -0.28996,-0.479501 -0.99859,-1.198752 -1.57474,-1.598336 -1.01926,-0.706906 -1.16444,-0.728925 -5.37721,-0.815651 -4.99776,-0.102883 -6.11113,0.189705 -7.46218,1.961024 -0.71768,0.940918 -0.77615,1.210185 -0.94695,4.360483 -0.10013,1.846701 -0.19245,16.969672 -0.20516,33.606592 l -0.0231,30.24896 7.92508,12.16546 c 4.3588,6.69101 8.01732,12.16909 8.13005,12.17352 0.11273,0.004 0.17267,-20.52056 0.13319,-45.61109 z"
     id="path2" />
</svg>
